<mxfile host="app.diagrams.net" modified="2023-10-05T14:25:18.307Z" agent="Mozilla/5.0 (Windows NT 10.0; Win64; x64) AppleWebKit/537.36 (KHTML, like Gecko) Chrome/117.0.0.0 Safari/537.36" etag="QfG8OnSo5OrUjHtc4fks" version="22.0.2" type="github">
  <diagram name="PÃ¡gina-1" id="6SnA57RYNpIgukF-dQep">
    <mxGraphModel dx="819" dy="451" grid="1" gridSize="10" guides="1" tooltips="1" connect="1" arrows="1" fold="1" page="1" pageScale="1" pageWidth="827" pageHeight="1169" math="0" shadow="0">
      <root>
        <mxCell id="0" />
        <mxCell id="1" parent="0" />
        <mxCell id="fA7ciCfTvqNKB3ihQVm7-1" value="&lt;font style=&quot;font-size: 14px;&quot;&gt;funcionarios&lt;/font&gt;" style="rounded=0;whiteSpace=wrap;html=1;" vertex="1" parent="1">
          <mxGeometry x="230" y="408" width="210" height="60" as="geometry" />
        </mxCell>
        <mxCell id="fA7ciCfTvqNKB3ihQVm7-3" value="&lt;u&gt;numero_carteira_profissional&lt;/u&gt;" style="text;strokeColor=none;align=center;fillColor=none;html=1;verticalAlign=middle;whiteSpace=wrap;rounded=0;" vertex="1" parent="1">
          <mxGeometry x="240" y="298" width="150" height="60" as="geometry" />
        </mxCell>
        <mxCell id="fA7ciCfTvqNKB3ihQVm7-4" value="&lt;font style=&quot;font-size: 14px;&quot;&gt;nome&lt;/font&gt;" style="text;html=1;align=center;verticalAlign=middle;resizable=0;points=[];autosize=1;strokeColor=none;fillColor=none;" vertex="1" parent="1">
          <mxGeometry x="170" y="510" width="60" height="30" as="geometry" />
        </mxCell>
        <mxCell id="fA7ciCfTvqNKB3ihQVm7-5" value="&lt;font style=&quot;font-size: 14px;&quot;&gt;*telefone&lt;/font&gt;" style="text;html=1;align=center;verticalAlign=middle;resizable=0;points=[];autosize=1;strokeColor=none;fillColor=none;" vertex="1" parent="1">
          <mxGeometry x="405" y="313" width="80" height="30" as="geometry" />
        </mxCell>
        <mxCell id="fA7ciCfTvqNKB3ihQVm7-6" value="cargo" style="text;html=1;align=center;verticalAlign=middle;resizable=0;points=[];autosize=1;strokeColor=none;fillColor=none;" vertex="1" parent="1">
          <mxGeometry x="565" y="365" width="50" height="30" as="geometry" />
        </mxCell>
        <mxCell id="fA7ciCfTvqNKB3ihQVm7-7" value="&lt;font style=&quot;font-size: 14px;&quot;&gt;endereco&lt;/font&gt;" style="text;html=1;align=center;verticalAlign=middle;resizable=0;points=[];autosize=1;strokeColor=none;fillColor=none;" vertex="1" parent="1">
          <mxGeometry x="305" y="510" width="80" height="30" as="geometry" />
        </mxCell>
        <mxCell id="fA7ciCfTvqNKB3ihQVm7-9" value="rua" style="text;html=1;align=center;verticalAlign=middle;resizable=0;points=[];autosize=1;strokeColor=none;fillColor=none;" vertex="1" parent="1">
          <mxGeometry x="440" y="468" width="40" height="30" as="geometry" />
        </mxCell>
        <mxCell id="fA7ciCfTvqNKB3ihQVm7-10" value="cep" style="text;html=1;align=center;verticalAlign=middle;resizable=0;points=[];autosize=1;strokeColor=none;fillColor=none;" vertex="1" parent="1">
          <mxGeometry x="440" y="518" width="40" height="30" as="geometry" />
        </mxCell>
        <mxCell id="fA7ciCfTvqNKB3ihQVm7-11" value="bairro" style="text;html=1;align=center;verticalAlign=middle;resizable=0;points=[];autosize=1;strokeColor=none;fillColor=none;" vertex="1" parent="1">
          <mxGeometry x="440" y="570" width="50" height="30" as="geometry" />
        </mxCell>
        <mxCell id="fA7ciCfTvqNKB3ihQVm7-12" value="" style="endArrow=none;html=1;rounded=0;" edge="1" parent="1" target="fA7ciCfTvqNKB3ihQVm7-5">
          <mxGeometry width="50" height="50" relative="1" as="geometry">
            <mxPoint x="380" y="408" as="sourcePoint" />
            <mxPoint x="429" y="348" as="targetPoint" />
          </mxGeometry>
        </mxCell>
        <mxCell id="fA7ciCfTvqNKB3ihQVm7-27" value="" style="endArrow=none;html=1;rounded=0;" edge="1" parent="1" target="fA7ciCfTvqNKB3ihQVm7-6">
          <mxGeometry width="50" height="50" relative="1" as="geometry">
            <mxPoint x="405" y="408" as="sourcePoint" />
            <mxPoint x="454" y="348" as="targetPoint" />
          </mxGeometry>
        </mxCell>
        <mxCell id="fA7ciCfTvqNKB3ihQVm7-31" value="" style="endArrow=none;html=1;rounded=0;" edge="1" parent="1" target="fA7ciCfTvqNKB3ihQVm7-1">
          <mxGeometry width="50" height="50" relative="1" as="geometry">
            <mxPoint x="210" y="518" as="sourcePoint" />
            <mxPoint x="263" y="453" as="targetPoint" />
          </mxGeometry>
        </mxCell>
        <mxCell id="fA7ciCfTvqNKB3ihQVm7-34" value="" style="endArrow=none;html=1;rounded=0;" edge="1" parent="1">
          <mxGeometry width="50" height="50" relative="1" as="geometry">
            <mxPoint x="345" y="518" as="sourcePoint" />
            <mxPoint x="395" y="468" as="targetPoint" />
          </mxGeometry>
        </mxCell>
        <mxCell id="fA7ciCfTvqNKB3ihQVm7-35" value="" style="endArrow=none;html=1;rounded=0;entryX=0.8;entryY=0.7;entryDx=0;entryDy=0;entryPerimeter=0;exitX=0.199;exitY=-0.012;exitDx=0;exitDy=0;exitPerimeter=0;" edge="1" parent="1" source="fA7ciCfTvqNKB3ihQVm7-1" target="fA7ciCfTvqNKB3ihQVm7-3">
          <mxGeometry width="50" height="50" relative="1" as="geometry">
            <mxPoint x="260" y="415" as="sourcePoint" />
            <mxPoint x="310" y="365" as="targetPoint" />
          </mxGeometry>
        </mxCell>
        <mxCell id="fA7ciCfTvqNKB3ihQVm7-38" value="" style="endArrow=none;html=1;rounded=0;" edge="1" parent="1" source="fA7ciCfTvqNKB3ihQVm7-7">
          <mxGeometry width="50" height="50" relative="1" as="geometry">
            <mxPoint x="390" y="635" as="sourcePoint" />
            <mxPoint x="440" y="585" as="targetPoint" />
          </mxGeometry>
        </mxCell>
        <mxCell id="fA7ciCfTvqNKB3ihQVm7-40" value="" style="endArrow=none;html=1;rounded=0;" edge="1" parent="1" source="fA7ciCfTvqNKB3ihQVm7-7">
          <mxGeometry width="50" height="50" relative="1" as="geometry">
            <mxPoint x="388.5" y="580" as="sourcePoint" />
            <mxPoint x="438.5" y="530" as="targetPoint" />
          </mxGeometry>
        </mxCell>
        <mxCell id="fA7ciCfTvqNKB3ihQVm7-41" value="" style="endArrow=none;html=1;rounded=0;" edge="1" parent="1" target="fA7ciCfTvqNKB3ihQVm7-9">
          <mxGeometry width="50" height="50" relative="1" as="geometry">
            <mxPoint x="380" y="518" as="sourcePoint" />
            <mxPoint x="430" y="468" as="targetPoint" />
          </mxGeometry>
        </mxCell>
      </root>
    </mxGraphModel>
  </diagram>
</mxfile>
